<svg width="128" height="128" viewBox="0 0 128 128" fill="none" xmlns="http://www.w3.org/2000/svg">
<rect width="128" height="128" fill="#E5E5E5"/>
<rect width="128" height="128" fill="#011627"/>
<path d="M35.146 42V16.002H51.064V20.286H40.312V26.586H49.72V30.87H40.312V42H35.146ZM55.768 42V37.716H61.438V20.286H55.768V16.002H72.274V20.286H66.646V37.716H72.274V42H55.768ZM94.45 16.002V20.286H87.604V42H82.396V20.286H75.55V16.002H94.45Z" fill="#FFEB95"/>
<path d="M51.61 52.002V78H46.444V66.534H39.556V78H34.39V52.002H39.556V62.25H46.444V52.002H51.61ZM68.578 78L67.36 71.994H60.43L59.254 78H53.878C55.11 72.876 56.356 68.214 57.616 64.014C58.876 59.786 60.094 55.782 61.27 52.002H66.898C68.13 55.81 69.348 59.856 70.552 64.14C71.784 68.396 72.974 73.016 74.122 78H68.578ZM63.958 57.042C63.678 58.022 63.412 58.96 63.16 59.856C62.936 60.724 62.712 61.592 62.488 62.46C62.292 63.3 62.096 64.154 61.9 65.022C61.732 65.89 61.564 66.786 61.396 67.71H66.478C66.31 66.786 66.142 65.89 65.974 65.022C65.806 64.154 65.61 63.3 65.386 62.46C65.19 61.592 64.966 60.724 64.714 59.856C64.49 58.96 64.238 58.022 63.958 57.042ZM86.932 78.546C83.264 78.546 80.464 77.37 78.532 75.018C76.6 72.666 75.634 69.32 75.634 64.98C75.634 62.824 75.928 60.906 76.516 59.226C77.104 57.546 77.916 56.132 78.952 54.984C80.016 53.808 81.262 52.926 82.69 52.338C84.146 51.722 85.728 51.414 87.436 51.414C88.36 51.414 89.186 51.498 89.914 51.666C90.67 51.806 91.328 51.974 91.888 52.17C92.448 52.366 92.91 52.576 93.274 52.8C93.666 53.024 93.96 53.192 94.156 53.304L92.812 57.42C92.168 57 91.384 56.65 90.46 56.37C89.564 56.062 88.528 55.908 87.352 55.908C86.54 55.908 85.742 56.062 84.958 56.37C84.202 56.65 83.516 57.14 82.9 57.84C82.312 58.512 81.822 59.422 81.43 60.57C81.066 61.718 80.884 63.146 80.884 64.854C80.884 67.822 81.388 70.104 82.396 71.7C83.432 73.268 85.112 74.052 87.436 74.052C88.78 74.052 89.886 73.898 90.754 73.59C91.65 73.282 92.364 72.974 92.896 72.666L94.198 76.74C93.47 77.188 92.476 77.608 91.216 78C89.984 78.364 88.556 78.546 86.932 78.546Z" fill="#7FDBCA"/>
<path d="M47.2 114C46.892 113.02 46.444 111.97 45.856 110.85C45.296 109.702 44.666 108.596 43.966 107.532C43.266 106.44 42.524 105.432 41.74 104.508C40.984 103.556 40.256 102.758 39.556 102.114V114H34.39V88.002H39.556V98.796C40.172 98.012 40.816 97.144 41.488 96.192C42.16 95.24 42.79 94.288 43.378 93.336C43.994 92.384 44.554 91.446 45.058 90.522C45.562 89.598 45.982 88.758 46.318 88.002H52.156C51.764 88.758 51.288 89.626 50.728 90.606C50.196 91.558 49.58 92.566 48.88 93.63C48.18 94.666 47.424 95.73 46.612 96.822C45.828 97.914 45.002 98.964 44.134 99.972C45.002 100.812 45.884 101.778 46.78 102.87C47.676 103.962 48.516 105.138 49.3 106.398C50.112 107.63 50.84 108.904 51.484 110.22C52.128 111.508 52.646 112.768 53.038 114H47.2ZM56.146 114V88.002H71.896V92.286H61.312V98.124H70.51V102.408H61.312V109.716H72.82V114H56.146ZM83.488 87.708C84.972 87.708 86.316 87.876 87.52 88.212C88.724 88.548 89.76 89.066 90.628 89.766C91.496 90.466 92.154 91.362 92.602 92.454C93.078 93.518 93.316 94.778 93.316 96.234C93.316 97.746 93.008 99.118 92.392 100.35C91.776 101.582 90.754 102.52 89.326 103.164C89.802 103.892 90.306 104.704 90.838 105.6C91.37 106.468 91.888 107.392 92.392 108.372C92.896 109.324 93.372 110.29 93.82 111.27C94.296 112.222 94.702 113.132 95.038 114H89.62C88.976 112.32 88.22 110.71 87.352 109.17C86.512 107.602 85.602 106.02 84.622 104.424H81.934V114H76.768V88.38C77.272 88.268 77.818 88.17 78.406 88.086C79.022 87.974 79.638 87.904 80.254 87.876C80.87 87.82 81.458 87.778 82.018 87.75C82.578 87.722 83.068 87.708 83.488 87.708ZM88.066 96.192C88.066 94.82 87.646 93.812 86.806 93.168C85.966 92.524 84.86 92.202 83.488 92.202C83.292 92.202 83.054 92.216 82.774 92.244C82.494 92.244 82.214 92.272 81.934 92.328V100.14H83.068C84.832 100.14 86.106 99.804 86.89 99.132C87.674 98.432 88.066 97.452 88.066 96.192Z" fill="#82AAFF"/>
</svg>
